<mxfile host="65bd71144e">
    <diagram id="T9uuaTeBy4bPSP1g8a4x" name="Page-1">
        <mxGraphModel dx="1002" dy="611" grid="1" gridSize="10" guides="1" tooltips="1" connect="1" arrows="1" fold="1" page="1" pageScale="1" pageWidth="827" pageHeight="1169" background="#FFFFFF" math="0" shadow="0">
            <root>
                <mxCell id="0"/>
                <mxCell id="1" parent="0"/>
                <mxCell id="208" style="edgeStyle=none;html=1;entryX=0;entryY=0.5;entryDx=0;entryDy=0;startSize=3;endSize=3;endArrow=block;endFill=1;exitX=1;exitY=0.5;exitDx=0;exitDy=0;" parent="1" target="207" edge="1" source="239">
                    <mxGeometry relative="1" as="geometry">
                        <mxPoint x="220" y="160" as="targetPoint"/>
                        <mxPoint x="160" y="140" as="sourcePoint"/>
                    </mxGeometry>
                </mxCell>
                <mxCell id="210" style="edgeStyle=none;html=1;exitX=1;exitY=0.5;exitDx=0;exitDy=0;endArrow=block;endFill=1;startSize=3;endSize=3;entryX=0;entryY=0.5;entryDx=0;entryDy=0;" parent="1" source="207" target="241" edge="1">
                    <mxGeometry relative="1" as="geometry">
                        <mxPoint x="330" y="160" as="targetPoint"/>
                    </mxGeometry>
                </mxCell>
                <mxCell id="207" value="A" style="rounded=0;whiteSpace=wrap;html=1;" parent="1" vertex="1">
                    <mxGeometry x="240" y="120" width="40" height="40" as="geometry"/>
                </mxCell>
                <mxCell id="237" style="edgeStyle=none;html=1;exitX=0.5;exitY=1;exitDx=0;exitDy=0;endArrow=block;endFill=1;startSize=3;endSize=3;entryX=0.5;entryY=0;entryDx=0;entryDy=0;" edge="1" parent="1" source="207" target="243">
                    <mxGeometry relative="1" as="geometry">
                        <mxPoint x="290" y="150" as="sourcePoint"/>
                        <mxPoint x="280" y="190" as="targetPoint"/>
                    </mxGeometry>
                </mxCell>
                <mxCell id="238" style="edgeStyle=none;html=1;exitX=0.5;exitY=0;exitDx=0;exitDy=0;endArrow=block;endFill=1;startSize=3;endSize=3;entryX=0.5;entryY=1;entryDx=0;entryDy=0;" edge="1" parent="1" source="207" target="242">
                    <mxGeometry relative="1" as="geometry">
                        <mxPoint x="270" y="170" as="sourcePoint"/>
                        <mxPoint x="280" y="100" as="targetPoint"/>
                    </mxGeometry>
                </mxCell>
                <mxCell id="239" value="&lt;b&gt;Inputs&lt;/b&gt;&lt;br&gt;into task&lt;br&gt;(upstream)" style="rounded=0;whiteSpace=wrap;html=1;strokeColor=none;fillColor=none;" vertex="1" parent="1">
                    <mxGeometry x="120" y="110" width="80" height="60" as="geometry"/>
                </mxCell>
                <mxCell id="241" value="&lt;b&gt;Inputs&lt;/b&gt;&lt;br&gt;into task&lt;br&gt;(downstream)" style="rounded=0;whiteSpace=wrap;html=1;strokeColor=none;fillColor=none;" vertex="1" parent="1">
                    <mxGeometry x="320" y="110" width="80" height="60" as="geometry"/>
                </mxCell>
                <mxCell id="242" value="&lt;b&gt;Outputs&lt;/b&gt;&lt;br&gt;from task&lt;br&gt;(upstream)" style="rounded=0;whiteSpace=wrap;html=1;strokeColor=none;fillColor=none;" vertex="1" parent="1">
                    <mxGeometry x="220" y="20" width="80" height="60" as="geometry"/>
                </mxCell>
                <mxCell id="243" value="&lt;b&gt;Outputs&lt;/b&gt;&lt;br&gt;from task&lt;br&gt;(downstream)" style="rounded=0;whiteSpace=wrap;html=1;strokeColor=none;fillColor=none;" vertex="1" parent="1">
                    <mxGeometry x="220" y="200" width="80" height="60" as="geometry"/>
                </mxCell>
            </root>
        </mxGraphModel>
    </diagram>
</mxfile>